<svg width="30" height="30" viewBox="0 0 30 30" fill="none" xmlns="http://www.w3.org/2000/svg">
<g id="icons8_so_so 1">
<path id="Vector" opacity="0.45" d="M26.2491 7.04844C26.2678 6.68469 25.9878 6.37469 25.6241 6.35594L25.1691 6.33219C23.2603 6.23469 21.6328 7.70219 21.5353 9.61094L21.4453 11.3659L20.5178 10.4384L13.1416 3.06219C12.4441 2.36469 11.3103 2.36469 10.6128 3.06219C9.91531 3.75969 9.91531 4.89344 10.6128 5.59094L15.2503 10.2284L14.4078 11.0709L8.36156 5.02719C7.66406 4.32969 6.53031 4.32969 5.83281 5.02719C5.13531 5.72469 5.13531 6.85844 5.83281 7.55594L12.2216 13.9447L11.4928 14.9022L6.39656 9.80719C5.69906 9.10969 4.56531 9.10969 3.86781 9.80719C3.17031 10.5047 3.17031 11.6384 3.86781 12.3359L9.30906 17.7772L8.58031 18.7347L5.55281 15.7072C4.85531 15.0097 3.72156 15.0097 3.02406 15.7072C2.32531 16.4047 2.32531 17.5384 3.02406 18.2359L6.39656 21.6084L8.98031 24.1922L10.1903 25.4022C12.9841 28.1959 17.5141 28.1959 20.3078 25.4022L24.1641 21.5459C25.2166 20.4934 25.7241 19.1084 25.7016 17.7297L26.2491 7.04844Z" fill="#20D091"/>
<path id="Vector_2" d="M20.0011 6.25039C19.5973 6.25039 19.2011 6.05539 18.9598 5.69414L16.4598 1.94414C16.0773 1.36914 16.2323 0.594141 16.8061 0.210391C17.3786 -0.173359 18.1573 -0.0171092 18.5398 0.556641L21.0398 4.30664C21.4223 4.88164 21.2673 5.65664 20.6936 6.04039C20.4798 6.18164 20.2386 6.25039 20.0011 6.25039Z" fill="#20D091"/>
<path id="Vector_3" d="M6.24877 28.7502C6.01127 28.7502 5.77002 28.6814 5.55627 28.5402L1.80627 26.0402C1.23252 25.6564 1.07752 24.8814 1.46002 24.3064C1.84252 23.7314 2.61877 23.5777 3.19377 23.9602L6.94377 26.4602C7.51752 26.8439 7.67252 27.6189 7.29002 28.1939C7.04877 28.5552 6.65252 28.7502 6.24877 28.7502Z" fill="#20D091"/>
</g>
</svg>
