<svg width="20" height="20" viewBox="0 0 20 20" fill="none" xmlns="http://www.w3.org/2000/svg">
<g id="icons8_saudi_arabia 1">
<path id="Vector" d="M10.0003 18.3337C14.6027 18.3337 18.3337 14.6027 18.3337 10.0003C18.3337 5.39795 14.6027 1.66699 10.0003 1.66699C5.39795 1.66699 1.66699 5.39795 1.66699 10.0003C1.66699 14.6027 5.39795 18.3337 10.0003 18.3337Z" fill="#33691E"/>
<path id="Vector_2" d="M8.74504 7.08301C8.73545 7.08301 8.72212 7.08801 8.70129 7.09926C8.65587 7.13009 8.56629 7.22301 8.56462 7.33051C8.56129 7.39092 8.55004 7.39092 8.5892 7.42967C8.61837 7.47051 8.64629 7.46717 8.70462 7.43634C8.73712 7.41176 8.74837 7.39717 8.76004 7.35676C8.77295 7.28676 8.6867 7.38926 8.67712 7.31301C8.65754 7.24134 8.71295 7.21217 8.76504 7.14384C8.76629 7.11051 8.76629 7.08467 8.74504 7.08301Z" fill="white"/>
<path id="Vector_3" d="M9.58625 7.08806C9.57 7.08973 9.55042 7.11098 9.52292 7.15973C9.50334 7.21181 9.41875 7.2914 9.48042 7.45431C9.52917 7.55681 9.55042 7.72431 9.5275 7.91015C9.49334 7.9639 9.485 7.98181 9.43959 8.0339C9.37625 8.1039 9.30625 8.08598 9.25417 8.06015C9.20375 8.02765 9.16459 8.00973 9.14167 7.9039C9.14667 7.73473 9.15625 7.45806 9.12542 7.39931C9.08 7.30806 9.005 7.34056 8.9725 7.36848C8.81792 7.51015 8.74125 7.74765 8.69584 7.9364C8.65209 8.07473 8.60625 8.03556 8.57542 7.9789C8.49709 7.90723 8.4925 7.33598 8.39792 7.4289C8.24667 7.86015 8.48417 8.33223 8.64875 8.28681C8.7675 8.33556 8.8425 8.10931 8.89125 7.86181C8.92375 7.79348 8.95 7.78515 8.96625 7.82098C8.96292 8.14973 8.99084 8.22306 9.07542 8.32223C9.2625 8.46723 9.41875 8.34015 9.43167 8.3289C9.44292 8.31598 9.57834 8.18223 9.57834 8.18223C9.61084 8.14806 9.655 8.14473 9.70042 8.17556C9.74584 8.2164 9.73959 8.2864 9.83542 8.33515C9.91667 8.36765 10.0892 8.34348 10.1283 8.27348C10.1821 8.18056 10.195 8.14973 10.2196 8.1139C10.2588 8.06348 10.3238 8.0864 10.3238 8.10098C10.3188 8.13015 10.28 8.15806 10.3058 8.21015C10.3513 8.24431 10.3629 8.2214 10.3888 8.21515C10.4846 8.16806 10.5563 7.9614 10.5563 7.9614C10.5613 7.88473 10.5171 7.88973 10.4896 7.90598C10.4521 7.9289 10.4504 7.93681 10.4129 7.95806C10.3658 7.9664 10.2746 7.99723 10.2304 7.92723C10.185 7.84431 10.185 7.72723 10.1492 7.64223C10.1492 7.63556 10.0888 7.51056 10.1458 7.50223C10.1733 7.50723 10.2354 7.52348 10.245 7.47306C10.2742 7.42265 10.18 7.28098 10.1163 7.20931C10.0592 7.14765 9.98292 7.14098 9.90792 7.20265C9.85584 7.24973 9.86417 7.30348 9.8525 7.35556C9.83959 7.41431 9.84292 7.48598 9.90125 7.5639C9.95334 7.6664 10.0492 7.79848 10.0183 7.98556C10.0183 7.98556 9.96292 8.07348 9.86542 8.06223C9.82459 8.0539 9.75959 8.03598 9.72375 7.77723C9.6975 7.58181 9.73042 7.30848 9.64709 7.17973C9.62834 7.13015 9.61209 7.08473 9.58625 7.08806Z" fill="white"/>
<path id="Vector_4" d="M9.31931 7.10968C9.29472 7.11134 9.26722 7.14051 9.24431 7.19759C9.22472 7.24009 9.20056 7.46468 9.20514 7.46468C9.18889 7.53134 9.27514 7.56051 9.31431 7.47426C9.37139 7.31634 9.37306 7.24968 9.37597 7.18301C9.36639 7.13051 9.34556 7.10634 9.31931 7.10968Z" fill="white"/>
<path id="Vector_5" d="M10.3046 7.12739C10.2783 7.12906 10.2575 7.14364 10.2492 7.18281C10.2396 7.27239 10.2442 7.32114 10.2588 7.39447C10.2717 7.44489 10.3433 7.52781 10.3792 7.57697C10.55 7.80489 10.7129 8.03614 10.8725 8.27364C10.8971 8.44947 10.915 8.62364 10.9263 8.79447C10.9525 9.17197 10.9604 9.64239 10.9358 10.0395C11.0075 10.0428 11.1213 9.92572 11.1604 9.75447C11.1867 9.51697 11.1508 9.03364 11.1492 8.89364C11.1475 8.83489 11.1425 8.76656 11.1396 8.69364C11.3233 8.99489 11.5025 9.31364 11.6783 9.66364C11.7417 9.63281 11.7271 9.27281 11.6896 9.22239C11.5496 8.91947 11.3558 8.62197 11.2942 8.50781C11.2713 8.46531 11.1967 8.34989 11.1054 8.21822C11.0892 8.02781 11.0713 7.86656 11.06 7.81781C11.0308 7.61781 11.1429 7.84072 11.1267 7.72322C11.0908 7.52322 10.98 7.38614 10.8483 7.20239C10.8075 7.14364 10.8075 7.13072 10.7425 7.21697C10.7033 7.30489 10.7033 7.37989 10.715 7.44822C10.6988 7.42364 10.6775 7.39281 10.6467 7.35697C10.5342 7.25947 10.5263 7.25447 10.4333 7.17614C10.4042 7.15531 10.3471 7.12281 10.3046 7.12739Z" fill="white"/>
<path id="Vector_6" d="M13.2176 7.15649C13.2046 7.15483 13.1913 7.16149 13.1751 7.18399C13.1459 7.21024 13.1146 7.25566 13.1146 7.31566C13.123 7.42149 13.1409 7.53066 13.1488 7.63649C13.1505 7.65108 13.1538 7.66566 13.1571 7.67899C13.1459 7.66441 13.1359 7.65274 13.1296 7.64816C12.923 7.43149 13.2242 7.61233 13.0905 7.44483C12.9767 7.32108 12.9438 7.28024 12.8463 7.20566C12.7976 7.17483 12.768 7.11441 12.7517 7.21691C12.7467 7.30649 12.7388 7.41066 12.7451 7.48691C12.7451 7.52941 12.7888 7.60899 12.8263 7.65441C12.963 7.82358 13.1046 8.00441 13.2463 8.19149C13.2755 8.57566 13.2838 8.92733 13.313 9.30983C13.3096 9.47441 13.2592 9.69233 13.2121 9.71358C13.2121 9.71358 13.1388 9.75608 13.0884 9.70858C13.0542 9.69399 12.9109 9.47108 12.9109 9.47108C12.8392 9.40441 12.7905 9.42399 12.7384 9.47108C12.5967 9.60941 12.5317 9.86816 12.4342 10.0457C12.4096 10.0848 12.3396 10.119 12.2617 10.0423C12.0617 9.77066 12.1788 9.38483 12.1542 9.48399C11.9767 9.68274 12.0551 10.0132 12.0955 10.0844C12.1542 10.2015 12.1996 10.2765 12.3134 10.3336C12.4176 10.4102 12.4971 10.3627 12.543 10.309C12.6471 10.2015 12.6471 9.92483 12.6959 9.87108C12.7301 9.77024 12.8163 9.78816 12.8588 9.83191C12.8996 9.89066 12.9467 9.92774 13.0067 9.95899C13.1042 10.0452 13.2201 10.0615 13.3338 9.98358C13.4121 9.93983 13.4626 9.88274 13.508 9.77024C13.5567 9.63858 13.5326 8.95149 13.5226 8.56899C13.5959 8.67316 13.6676 8.77733 13.7392 8.88483C13.7717 9.22024 13.7863 9.55066 13.7751 9.86774C13.7684 9.93108 13.9946 9.67899 13.993 9.56024C13.993 9.45608 13.993 9.36316 13.993 9.27524C14.1038 9.45108 14.2109 9.63024 14.3121 9.81066C14.3738 9.77816 14.353 9.42316 14.3138 9.37441C14.208 9.19691 14.073 9.00649 13.9671 8.85858C13.9459 8.67149 13.9184 8.45024 13.9055 8.38149C13.8859 8.27733 13.8663 8.11774 13.8355 7.99399C13.8271 7.94524 13.803 7.78899 13.8092 7.77274C13.8221 7.73858 13.868 7.77441 13.8921 7.73358C13.9263 7.69608 13.7717 7.29899 13.6951 7.18649C13.6676 7.13608 13.6155 7.15233 13.5534 7.23524C13.4946 7.28899 13.5159 7.41441 13.5388 7.53149C13.5959 7.83274 13.648 8.13858 13.6884 8.44441C13.6134 8.33191 13.5209 8.19691 13.4296 8.06524C13.428 8.05399 13.4184 8.00649 13.4184 8.00649C13.4184 7.99983 13.4071 7.76066 13.3955 7.70233C13.3938 7.67941 13.3871 7.67316 13.4117 7.67608C13.438 7.69733 13.4426 7.69899 13.4571 7.70524C13.4834 7.71024 13.5059 7.66608 13.4913 7.62566C13.4101 7.47608 13.3284 7.32608 13.2488 7.17816C13.2401 7.16774 13.2305 7.15816 13.2176 7.15649Z" fill="white"/>
<path id="Vector_7" d="M5.69651 7.16413C5.65276 7.16247 5.60193 7.19038 5.62151 7.24372C5.61026 7.27288 5.70943 7.37247 5.72734 7.42622C5.74193 7.46538 5.71109 7.5908 5.74359 7.60205C5.77443 7.61497 5.81526 7.5158 5.82984 7.42288C5.83943 7.37247 5.83151 7.20163 5.71609 7.1658C5.70943 7.16413 5.70276 7.16413 5.69651 7.16413Z" fill="white"/>
<path id="Vector_8" d="M14.2644 7.16504C14.2548 7.16671 14.2415 7.18296 14.2219 7.22379C14.1765 7.29879 14.1602 7.43379 14.1794 7.55087C14.2902 8.29796 14.3715 9.01879 14.3877 9.68129C14.3781 9.74296 14.3765 9.77712 14.3469 9.85546C14.2819 9.93837 14.2085 10.0442 14.1419 10.0946C14.0735 10.145 13.9302 10.1921 13.8831 10.2296C13.7352 10.3159 13.7335 10.415 13.854 10.4184C14.0623 10.3938 14.3081 10.3775 14.4773 10.1221C14.5227 10.0505 14.5765 9.85504 14.5781 9.73629C14.5944 9.03962 14.5698 8.35754 14.4656 7.85296C14.459 7.80421 14.4365 7.69004 14.446 7.67546C14.459 7.64129 14.5273 7.67879 14.5519 7.63962C14.586 7.60379 14.376 7.33212 14.301 7.21629C14.2856 7.18796 14.2777 7.16504 14.2644 7.16504Z" fill="white"/>
<path id="Vector_9" d="M12.0833 7.17585C12.075 7.17752 12.0621 7.19043 12.0396 7.22127C11.9808 7.41168 11.96 7.56627 11.9825 7.68502C12.1321 8.46293 12.2854 9.17252 12.2608 9.91502C12.3308 9.91502 12.4121 9.7521 12.4479 9.59127C12.4675 9.37002 12.435 9.23502 12.43 9.10627C12.4233 8.97585 12.2821 7.9196 12.2542 7.8221C12.2183 7.63502 12.3908 7.79752 12.3729 7.68877C12.3125 7.5521 12.1646 7.35335 12.1175 7.2346C12.0996 7.20335 12.0979 7.17418 12.0833 7.17585Z" fill="white"/>
<path id="Vector_10" d="M6.7737 7.19213C6.75412 7.19546 6.73787 7.21005 6.72995 7.23463C6.72662 7.25088 6.73829 7.27838 6.72329 7.28672C6.7137 7.29505 6.68079 7.29005 6.68245 7.24421C6.68245 7.22963 6.67287 7.21505 6.66621 7.20505C6.65954 7.20005 6.65495 7.20005 6.64329 7.20005C6.6287 7.20005 6.63037 7.20338 6.62204 7.2163C6.61871 7.22755 6.6137 7.23922 6.6137 7.2538C6.61204 7.27005 6.60537 7.27505 6.59412 7.27838C6.5812 7.27838 6.58454 7.27838 6.57287 7.27171C6.56621 7.26505 6.55829 7.26213 6.55829 7.25047C6.55829 7.23755 6.55496 7.21797 6.55162 7.20963C6.54662 7.20297 6.53704 7.19838 6.52704 7.19672C6.47162 7.19672 6.46662 7.26005 6.46996 7.28463C6.46662 7.28963 6.46495 7.40172 6.53995 7.43255C6.64245 7.4813 6.83287 7.46005 6.82496 7.29755C6.82496 7.28296 6.82162 7.23421 6.81995 7.22088C6.80954 7.19671 6.79162 7.1888 6.7737 7.19213Z" fill="white"/>
<path id="Vector_11" d="M8.13599 7.19264C8.10016 7.19431 8.06932 7.20389 8.04307 7.21889C7.97474 7.28389 7.96016 7.38639 8.01224 7.45181C8.06432 7.47472 8.11641 7.52681 8.08224 7.55597C7.93557 7.71222 7.55641 7.97264 7.53682 8.01972L7.53516 8.02139V8.02306V8.02472C7.53516 8.02472 7.53682 8.02472 7.53682 8.02639H7.53849V8.02806H7.54016C7.55974 8.04097 7.79724 8.04097 7.82349 8.02972L7.82516 8.02806C7.90807 7.99722 8.29557 7.55431 8.29557 7.55431C8.27432 7.53806 8.25641 7.52514 8.23682 7.50722C8.21391 7.48931 8.21724 7.46972 8.23682 7.45181C8.33141 7.39639 8.30182 7.27264 8.25141 7.21722C8.20932 7.19722 8.17016 7.19097 8.13599 7.19264Z" fill="white"/>
<path id="Vector_12" d="M11.6975 7.19434C11.6879 7.196 11.6762 7.21225 11.6566 7.25142C11.6112 7.32809 11.5783 7.45809 11.5833 7.58017C11.6825 8.26684 11.7121 8.86767 11.7771 9.55434C11.7837 9.621 11.7737 9.71725 11.7283 9.756C11.5654 9.92684 11.3296 10.1368 11.0741 10.2331C11.0466 10.2639 11.1425 10.396 11.2662 10.396C11.4746 10.3731 11.6583 10.256 11.8279 9.9485C11.8733 9.87684 11.9533 9.72392 11.955 9.60517C11.9712 8.90684 11.9208 8.36475 11.815 7.86017C11.8083 7.81142 11.8133 7.75267 11.8216 7.73809C11.8346 7.72184 11.8821 7.73809 11.9046 7.69892C11.9404 7.66309 11.81 7.36184 11.7354 7.24642C11.7204 7.21684 11.7104 7.19434 11.6975 7.19434Z" fill="white"/>
<path id="Vector_13" d="M6.18032 7.21497C6.15115 7.2183 6.12324 7.24247 6.11032 7.27372C6.10532 7.38289 6.10532 7.4933 6.11865 7.59455C6.16907 7.77372 6.18365 7.92997 6.20824 8.11205C6.2149 8.35622 6.06824 8.21789 6.0749 8.09747C6.10907 7.93955 6.09949 7.69205 6.0699 7.62872C6.04532 7.56705 6.01782 7.55039 5.95907 7.56205C5.91199 7.55872 5.79324 7.68913 5.75907 7.90538C5.75907 7.90538 5.73157 8.01622 5.71824 8.11538C5.70199 8.22788 5.62865 8.3058 5.57657 8.1008C5.53282 7.94955 5.5049 7.57997 5.4299 7.66788C5.40865 7.9558 5.38282 8.46372 5.62865 8.5158C5.9249 8.5433 5.76032 8.01455 5.86782 7.9183C5.88907 7.86955 5.92657 7.86955 5.92949 7.92955V8.37872C5.92615 8.52538 6.0224 8.56913 6.09699 8.5983C6.17532 8.5933 6.22574 8.59497 6.25657 8.66997C6.26949 8.93039 6.28115 9.18914 6.29407 9.44955C6.29407 9.44955 6.47324 9.50164 6.48282 9.01164C6.49115 8.72497 6.42574 8.48247 6.46324 8.42747C6.4649 8.37205 6.5349 8.37039 6.58365 8.39664C6.66199 8.45205 6.69615 8.51872 6.81657 8.49247C7.00032 8.44205 7.10949 8.35247 7.11282 8.21247C7.10157 8.07747 7.08657 7.94372 7.02824 7.81039C7.03657 7.7858 6.99407 7.72247 7.00199 7.69789C7.03449 7.74997 7.0849 7.74497 7.0949 7.69789C7.06407 7.59539 7.01657 7.49622 6.93699 7.45372C6.87199 7.39663 6.7774 7.40997 6.74324 7.52872C6.72699 7.66539 6.79199 7.8283 6.89115 7.96163C6.91407 8.01372 6.94324 8.09997 6.93032 8.1783C6.87657 8.20747 6.82449 8.19622 6.77907 8.14914C6.77907 8.14914 6.63407 8.03997 6.63407 8.0158C6.67324 7.7683 6.6424 7.73913 6.62115 7.6708C6.60657 7.57622 6.56074 7.54538 6.52365 7.48038C6.48782 7.44122 6.43907 7.44122 6.41449 7.48038C6.34949 7.59288 6.38032 7.83205 6.4274 7.93955C6.46157 8.03872 6.51199 8.1008 6.48782 8.1008C6.46824 8.15622 6.42615 8.1433 6.39657 8.07955C6.35282 7.94622 6.34449 7.74747 6.34449 7.65788C6.33157 7.54705 6.31699 7.30955 6.24365 7.24955C6.22574 7.22164 6.20324 7.21372 6.18032 7.21497Z" fill="white"/>
<path id="Vector_14" d="M7.22001 7.21665C7.20709 7.21832 7.19084 7.2279 7.17126 7.23124C7.10793 7.25082 7.04918 7.30624 7.06709 7.41207C7.14209 7.86457 7.19084 8.20957 7.26584 8.66207C7.27709 8.71582 7.23168 8.78582 7.17459 8.77915C7.07709 8.71249 7.05251 8.57915 6.88668 8.5854C6.76626 8.5854 6.62959 8.71707 6.61168 8.84249C6.59209 8.94332 6.58543 9.05249 6.61168 9.13874C6.69626 9.24124 6.79876 9.22999 6.88668 9.20707C6.96001 9.1779 7.02001 9.10457 7.04626 9.12249C7.06251 9.15165 7.04459 9.38624 6.70293 9.56832C6.49293 9.6629 6.32543 9.6854 6.23418 9.5129C6.17876 9.4054 6.23918 8.99707 6.10084 9.09124C5.69376 10.1396 7.05459 10.2858 7.20584 9.13499C7.21543 9.10249 7.24668 9.06999 7.26751 9.07624C7.27584 9.08124 7.28543 9.09415 7.28709 9.11707C7.25626 10.1604 6.23584 10.2321 6.06293 9.90332C6.01918 9.82665 6.00584 9.65415 6.00251 9.55165C5.99418 9.48832 5.97793 9.45249 5.96001 9.4379C5.91918 9.40707 5.86251 9.48832 5.85084 9.62832C5.83459 9.74207 5.83959 9.77332 5.83959 9.88207C5.89334 10.7058 7.20668 10.3525 7.42001 9.6704C7.52584 9.31874 7.41834 9.05374 7.45418 9.02082C7.45418 9.02082 7.45418 9.02082 7.45584 9.02082C7.45584 9.02082 7.45584 9.01915 7.45751 9.01915C7.45751 9.01915 7.45751 9.01915 7.45918 9.01915C7.45918 9.01749 7.46251 9.01749 7.46251 9.01749C7.59418 9.15749 7.77668 9.0354 7.81751 8.98665C7.83376 8.96207 7.87793 8.94749 7.90709 8.97832C8.00959 9.05165 8.18709 9.01749 8.22459 8.88874C8.24584 8.76165 8.26376 8.63165 8.26834 8.4979C8.20168 8.51749 8.14959 8.53374 8.12668 8.55665C8.12168 8.56165 8.11834 8.5679 8.11709 8.57457C8.11209 8.61207 8.10584 8.64957 8.10084 8.68707C8.09918 8.6904 8.09918 8.69207 8.09751 8.6954C8.09418 8.7004 8.08918 8.70374 8.08459 8.70665C8.06168 8.71957 8.02126 8.71165 8.01793 8.67749C7.98709 8.53415 7.85668 8.51624 7.77876 8.7379C7.72501 8.78165 7.62918 8.78999 7.61918 8.72499C7.63209 8.57707 7.57209 8.55582 7.45168 8.62749C7.41251 8.33124 7.37501 8.04957 7.33626 7.75499C7.38668 7.75332 7.43209 7.78915 7.47793 7.73207C7.42918 7.57749 7.32334 7.26332 7.26459 7.23415H7.26251C7.25918 7.23082 7.25584 7.22749 7.25418 7.22582C7.25251 7.22415 7.25084 7.22249 7.24918 7.22249C7.24918 7.22082 7.24751 7.22082 7.24584 7.21915C7.24418 7.21749 7.24084 7.21749 7.23751 7.21582C7.23126 7.21665 7.22668 7.21665 7.22001 7.21665Z" fill="white"/>
<path id="Vector_15" d="M11.2792 7.21979C11.2271 7.21812 11.17 7.25062 11.1913 7.31562C11.1783 7.35145 11.3038 7.47187 11.3246 7.53854C11.3604 7.63937 11.2971 7.73562 11.3342 7.7502C11.3683 7.76645 11.4171 7.64604 11.435 7.53354C11.4563 7.44395 11.3913 7.25854 11.3 7.22104C11.2938 7.21979 11.2875 7.21979 11.2792 7.21979Z" fill="white"/>
<path id="Vector_16" d="M8.11683 7.3304C8.14142 7.32707 8.17058 7.34998 8.1835 7.38082C8.19808 7.41332 8.19183 7.44415 8.16725 7.45082C8.141 7.45582 8.11017 7.43457 8.09558 7.40207C8.081 7.36957 8.08725 7.33707 8.1135 7.3304C8.1135 7.3304 8.11558 7.3304 8.11683 7.3304Z" fill="white"/>
<path id="Vector_17" d="M13.9832 7.48248C13.9361 7.48081 13.8841 7.51664 13.9036 7.58831C13.8924 7.62581 14.0061 7.75748 14.0241 7.82914C14.0403 7.87956 13.9995 8.04414 14.0336 8.05873C14.0645 8.07664 14.1086 7.94498 14.1249 7.82414C14.1345 7.75914 14.0857 7.52789 14.0028 7.48539C13.9961 7.48414 13.9895 7.48414 13.9832 7.48248Z" fill="white"/>
<path id="Vector_18" d="M10.7391 7.56348C10.7441 7.58139 10.7487 7.60098 10.752 7.62223C10.7603 7.66473 10.7699 7.70681 10.7783 7.74931C10.7408 7.69723 10.7099 7.65639 10.697 7.64181C10.6124 7.54098 10.6987 7.57514 10.7391 7.56348Z" fill="white"/>
<path id="Vector_19" d="M11.4857 7.92934C11.4678 7.93267 11.4499 7.94892 11.4432 7.97309C11.4399 7.98934 11.4515 8.01684 11.4365 8.02517C11.4282 8.0335 11.394 8.0285 11.3957 7.98267C11.3957 7.96809 11.3861 7.95184 11.3794 7.9435C11.3728 7.9385 11.3682 7.9385 11.3565 7.9385C11.3419 7.9385 11.3436 7.94184 11.3353 7.95475C11.3319 7.966 11.3269 7.97767 11.3269 7.99225C11.3253 8.0085 11.3186 8.0135 11.3074 8.01517C11.2944 8.01517 11.2961 8.01684 11.2861 8.01017C11.2794 8.0035 11.2715 8.00059 11.2715 7.98892C11.2715 7.976 11.2682 7.95642 11.2648 7.94809C11.2582 7.94142 11.2503 7.9385 11.2403 7.93517C11.1848 7.93517 11.1815 7.9985 11.1848 8.02309C11.1798 8.02809 11.1765 8.14017 11.2532 8.17267C11.3557 8.21975 11.5461 8.19892 11.5382 8.036C11.5382 8.02142 11.5332 7.97267 11.5332 7.95934C11.5232 7.936 11.5053 7.926 11.4857 7.92934Z" fill="white"/>
<path id="Vector_20" d="M8.07652 7.96418C8.06361 7.96251 8.04736 7.96751 8.02777 7.97876C7.93819 8.02751 7.90402 8.17251 7.95944 8.25543C8.01152 8.33043 8.09444 8.30251 8.10611 8.30251C8.19402 8.31376 8.24611 8.13793 8.24611 8.13793C8.24611 8.13793 8.24944 8.08751 8.14527 8.18168C8.09986 8.19001 8.09486 8.17335 8.08361 8.14918C8.07527 8.10376 8.07694 8.05793 8.09819 8.01085C8.10736 7.98376 8.09777 7.96585 8.07652 7.96418Z" fill="white"/>
<path id="Vector_21" d="M12.8971 7.98656C12.8483 7.98323 12.7946 8.01573 12.7816 8.08406C12.7816 8.12489 12.7996 8.14573 12.7962 8.18323C12.7896 8.20448 12.7687 8.21739 12.7179 8.19281C12.7246 8.18448 12.6837 8.12781 12.6837 8.12781C12.6446 8.10323 12.5908 8.12948 12.5566 8.15073C12.5371 8.18656 12.5225 8.24531 12.5437 8.30698C12.6025 8.41281 12.7991 8.59364 12.8921 8.59489C12.8937 8.49906 12.9033 8.37198 12.9083 8.29364C12.91 8.26281 12.9179 8.23031 12.9458 8.22198C12.975 8.21531 13.0254 8.25114 13.0254 8.22031C13.0204 8.15989 13.0075 8.06906 12.9733 8.02656C12.9558 8.00114 12.9279 7.98823 12.8971 7.98656Z" fill="white"/>
<path id="Vector_22" d="M8.90606 8.31919C8.9044 8.32086 8.90273 8.32086 8.90273 8.32253C8.90106 8.32253 8.90106 8.32419 8.8994 8.32419C8.88981 8.33086 8.87815 8.34878 8.85231 8.36669C8.80856 8.41711 8.80023 8.45294 8.8019 8.55378C8.80523 8.56336 8.88648 8.78961 8.95482 8.94919C9.0019 9.11378 9.0444 9.30419 9.01356 9.48294C8.9044 9.71878 8.68648 9.93044 8.47481 10.0463C8.36731 10.0804 8.27482 10.0692 8.24857 10.0446C8.1869 10.0021 8.18523 9.92919 8.18815 9.91586L8.18981 9.91419C8.36731 9.79044 8.57065 9.68961 8.73023 9.35419C8.77731 9.22711 8.7919 9.14919 8.74482 8.95211C8.7269 8.87711 8.70398 8.81711 8.65356 8.76503V8.76336C8.6844 8.74878 8.76273 8.80711 8.77565 8.77169C8.75607 8.67711 8.69273 8.55044 8.62106 8.48503C8.55773 8.42794 8.48773 8.42169 8.43065 8.47378C8.36398 8.50961 8.35107 8.63961 8.3819 8.75544C8.41773 8.84169 8.51231 8.85628 8.57898 9.03044C8.58065 9.04169 8.6019 9.16086 8.56773 9.20794C8.54023 9.29419 8.1869 9.57253 8.16231 9.58878C8.16231 9.59044 8.16065 9.59044 8.16065 9.59044L8.15898 9.59211C8.15898 9.59211 8.15898 9.59211 8.15731 9.59211V9.59378H8.15565L8.15398 9.59211V9.59044C8.15231 9.58211 8.15398 9.56586 8.15398 9.53669C8.15065 9.48461 8.17357 9.36586 8.1719 9.34628L8.17023 9.34461C8.05315 9.41961 8.01398 9.65044 7.99273 9.71878C7.69815 9.92211 7.36106 10.075 7.16773 10.2821C7.06856 10.44 7.86273 10.1013 7.95565 10.0609L7.95731 10.0625C7.97523 10.0821 7.9769 10.1504 8.02898 10.2104C8.1119 10.3229 8.28773 10.3913 8.45857 10.3488C8.74523 10.2446 8.9094 10.0492 9.0769 9.83294C9.10148 9.79878 9.13856 9.77128 9.1744 9.79878C9.28981 10.0575 9.6219 10.24 10.0531 10.2592C10.1523 10.1388 10.1052 10.0784 10.0644 10.0542C10.0531 10.0446 9.85106 9.96628 9.81857 9.88836C9.79898 9.81503 9.84773 9.75169 9.94398 9.70294C10.219 9.66878 10.4911 9.63294 10.7544 9.54836C10.7577 9.45878 10.8098 9.32711 10.844 9.27003C10.8686 9.22919 10.8831 9.22628 10.8894 9.22128C10.8894 9.22128 10.8894 9.21961 10.8911 9.21961V9.21794H10.8927V9.21628C10.8927 9.21461 10.8927 9.21128 10.8911 9.20794L10.8473 9.18169L9.96523 9.17836C9.95398 9.17336 9.94565 9.17003 9.94065 9.16544L9.93898 9.16378C9.93898 9.16378 9.93898 9.16378 9.93898 9.16211H9.93731V9.16044L9.93565 9.15878V9.15711V9.15544V9.15378V9.15211V9.15044C9.93565 9.15044 9.93565 9.14878 9.93731 9.14878C9.94065 9.14211 9.9519 9.13753 9.96481 9.13253C10.1748 9.10336 10.549 9.04128 10.5736 8.68169C10.5702 8.49461 10.494 8.37253 10.2644 8.33836C10.0952 8.35128 9.97481 8.51419 9.9944 8.69461C9.98606 8.74336 10.0106 8.83794 9.96023 8.84919C9.63648 8.87836 9.28315 9.08211 9.27023 9.22669L9.26857 9.22836H9.2669H9.26523L9.26356 9.23003H9.26231H9.26065C9.25898 9.23003 9.25898 9.23003 9.25898 9.23003C9.25731 9.23003 9.25565 9.22836 9.25565 9.22836C9.2344 9.22336 9.2069 9.18753 9.2119 9.13878C9.19898 8.88794 9.11731 8.60336 8.98898 8.38336C8.94356 8.33794 8.92398 8.32003 8.91065 8.31836H8.90898C8.9094 8.31919 8.90773 8.31919 8.90606 8.31919H8.9044C8.90773 8.31919 8.90606 8.31919 8.90606 8.31919Z" fill="white"/>
<path id="Vector_23" d="M9.75113 8.4518C9.73321 8.45513 9.71529 8.46972 9.70863 8.4943C9.70363 8.51055 9.71696 8.53805 9.70029 8.54638C9.69196 8.55472 9.65946 8.54972 9.66113 8.50388C9.66113 8.49097 9.64988 8.47472 9.64321 8.46472C9.63821 8.46138 9.63363 8.45972 9.62196 8.45972C9.60738 8.45972 9.60738 8.46472 9.59904 8.47597C9.59571 8.48722 9.59071 8.50055 9.59071 8.51347C9.58904 8.52972 9.58404 8.53638 9.57279 8.53805C9.55821 8.53805 9.56154 8.53972 9.55154 8.53305C9.54488 8.52472 9.53696 8.52347 9.53696 8.51013C9.53696 8.49888 9.53363 8.4793 9.53029 8.47097C9.52529 8.46263 9.51571 8.45972 9.50404 8.45805C9.44863 8.45805 9.44529 8.52138 9.44863 8.5443C9.44529 8.5493 9.44196 8.66305 9.51863 8.69388C9.61946 8.74263 9.86196 8.71347 9.80196 8.55722C9.80196 8.54263 9.79863 8.49388 9.79696 8.48055C9.78863 8.45847 9.76904 8.44847 9.75113 8.4518Z" fill="white"/>
<path id="Vector_24" d="M13.1572 8.59207C13.1555 8.5904 13.1522 8.5904 13.1488 8.59207C13.1488 8.59207 12.6784 8.92749 12.6672 8.93874C12.6201 8.98124 12.6426 9.12582 12.6672 9.10957C12.6997 9.12249 13.1734 8.8004 13.1651 8.7629C13.1863 8.76457 13.1963 8.59874 13.1572 8.59207Z" fill="white"/>
<path id="Vector_25" d="M10.1951 8.64088C10.2147 8.63921 10.2389 8.64588 10.2635 8.65879C10.2993 8.68004 10.3205 8.71088 10.3189 8.73379V8.73546C10.3189 8.73546 10.3172 8.73713 10.3172 8.73879L10.3155 8.74046V8.74213L10.3139 8.74379C10.3122 8.74546 10.3105 8.74713 10.3089 8.74879C10.2926 8.76504 10.2535 8.76338 10.216 8.74213C10.1818 8.72088 10.1605 8.69004 10.1622 8.66879C10.1622 8.66713 10.1639 8.66713 10.1639 8.66546C10.1639 8.66213 10.1655 8.66046 10.1655 8.65713C10.1672 8.65713 10.1672 8.65546 10.1672 8.65379H10.1689C10.1689 8.65213 10.1705 8.65046 10.1722 8.65046C10.1789 8.64588 10.1868 8.64254 10.1951 8.64088Z" fill="white"/>
<path id="Vector_26" d="M6.07416 8.72559C5.83 8.73059 5.47375 9.04642 5.46375 9.22059C5.72083 9.09684 5.97333 8.97809 6.23541 8.851C6.19291 8.78767 6.23208 8.73059 6.07416 8.72559Z" fill="white"/>
<path id="Vector_27" d="M6.86335 8.83663C6.88793 8.83663 6.9121 8.84788 6.92501 8.88204C6.93793 8.91288 6.92668 8.94371 6.9121 8.96038V8.96204C6.9121 8.96204 6.9121 8.96204 6.9121 8.96371C6.90085 8.97663 6.86501 8.97038 6.83876 8.97038C6.8096 8.97038 6.79335 8.96538 6.77543 8.93954C6.76585 8.91204 6.79335 8.88413 6.8046 8.86288H6.80626C6.80626 8.85954 6.8096 8.85788 6.81126 8.85621C6.8196 8.84788 6.83585 8.83996 6.85376 8.83829C6.85668 8.83663 6.86001 8.83496 6.86335 8.83663Z" fill="white"/>
<path id="Vector_28" d="M13.0663 8.93229C13.0225 8.93729 12.9817 8.97938 13.0013 9.04479C12.9883 9.08396 13.06 9.21729 13.0779 9.28896C13.0942 9.33938 13.0567 9.48438 13.0908 9.49896C13.1217 9.51688 13.2063 9.41438 13.2033 9.28563C13.2129 9.22063 13.1804 8.97646 13.0958 8.93563C13.0858 8.93229 13.0763 8.93063 13.0663 8.93229Z" fill="white"/>
<path id="Vector_29" d="M7.86826 8.9987C7.82909 9.00037 7.79659 9.02162 7.81117 9.07537C7.80784 9.11287 7.91867 9.15995 7.92492 9.2512C7.93951 9.28703 7.90034 9.40578 7.93326 9.41703C7.96409 9.42995 8.00492 9.33578 8.02117 9.24787C8.02951 9.19912 7.98367 9.0312 7.90409 9.00203C7.89242 8.9987 7.87951 8.99703 7.86826 8.9987Z" fill="white"/>
<path id="Vector_30" d="M9.42876 9.21191C9.43042 9.21191 9.43376 9.21191 9.43709 9.21191C9.43709 9.21191 9.43709 9.21191 9.43876 9.21191C9.53459 9.23816 9.67959 9.24108 9.80334 9.25441C9.90417 9.26108 9.95459 9.339 9.86042 9.37316C9.76584 9.40566 9.67667 9.43025 9.67667 9.56525C9.68792 9.63191 9.68501 9.66775 9.67501 9.684C9.67501 9.68566 9.67334 9.68733 9.67167 9.68733V9.689H9.67001V9.69066H9.66834L9.66667 9.69233C9.66501 9.69233 9.66334 9.694 9.66167 9.694C9.66167 9.694 9.65834 9.694 9.65834 9.69566C9.63542 9.699 9.60292 9.67775 9.57876 9.66483C9.52167 9.62233 9.35917 9.52316 9.33626 9.30691C9.33251 9.25775 9.37001 9.21525 9.42876 9.21191Z" fill="white"/>
<path id="Vector_31" d="M5.6164 9.37793C5.60974 9.37793 5.59682 9.39585 5.58224 9.4171C5.43724 9.64501 5.42599 9.98668 5.5039 10.0892C5.5464 10.1363 5.6164 10.1575 5.66682 10.1429C5.75807 10.1038 5.79724 9.92001 5.77599 9.85335C5.74515 9.80626 5.72057 9.7996 5.6914 9.83876C5.62807 9.96918 5.60182 9.88126 5.59557 9.80793C5.58599 9.67126 5.5989 9.54585 5.61515 9.44668C5.6214 9.39585 5.6214 9.37793 5.6164 9.37793Z" fill="white"/>
<path id="Vector_32" d="M10.5092 9.67773C10.4979 9.67773 10.4863 9.6794 10.475 9.6844C10.4734 9.6844 10.3725 9.75273 10.34 9.79982C10.3204 9.81607 10.3221 9.82898 10.3288 9.85523C10.3434 9.8894 10.3713 9.87982 10.4021 9.8619C10.4429 9.8569 10.4625 9.88315 10.4592 9.93357C10.4413 9.99398 10.4675 10.0165 10.4675 10.0215C10.4675 10.0248 10.5084 10.059 10.5538 10.0311C10.6513 9.99357 10.7117 9.95773 10.8484 9.92857C10.8842 9.9269 10.8825 9.83107 10.8254 9.82773C10.7521 9.83273 10.6838 9.83607 10.6088 9.8944C10.5634 9.90398 10.5567 9.87648 10.5454 9.8519C10.5342 9.79023 10.5717 9.74607 10.565 9.70065C10.5659 9.7019 10.54 9.67898 10.5092 9.67773Z" fill="white"/>
<path id="Vector_33" d="M13.6411 9.79492C13.6232 9.79492 13.6053 9.79826 13.5778 9.79992C13.5469 9.80659 13.5369 9.81951 13.5307 9.85701C13.534 9.91076 13.5665 9.90909 13.6024 9.93034C13.6219 9.95659 13.6349 9.97909 13.6007 10.0216C13.5682 10.0508 13.5436 10.067 13.5111 10.0966C13.4965 10.1241 13.4865 10.1633 13.534 10.1762C13.6203 10.2008 13.8219 10.0703 13.8219 10.067C13.8544 10.0424 13.8432 9.99701 13.8415 9.99701C13.8219 9.97409 13.7799 9.98742 13.7503 9.98409C13.7374 9.98409 13.6915 9.97742 13.7128 9.93867C13.7307 9.91242 13.7374 9.89784 13.7486 9.86701C13.7632 9.83784 13.7519 9.81826 13.7015 9.80034C13.6769 9.79659 13.659 9.79492 13.6411 9.79492Z" fill="white"/>
<path id="Vector_34" d="M12.62 12.3146C12.62 12.3146 12.62 12.3163 12.6183 12.3163C12.4733 12.3521 12.4783 12.5033 12.5712 12.5683C11.0413 12.5683 8.69417 12.5438 8.18958 12.5438C7.90792 12.5438 7.0175 12.5096 7 12.5096C7.19208 12.7896 7.46875 12.8467 7.83 12.8513C8.51042 12.8513 11.6583 12.8429 12.555 12.8429C12.4917 12.9554 12.5617 13.1375 12.6104 13.1717C12.6121 13.1717 12.6137 13.1733 12.6154 13.1733C12.6171 13.1733 12.6188 13.175 12.6204 13.175C12.6221 13.175 12.6237 13.175 12.6237 13.175C12.6825 13.1896 12.7083 13.1475 12.7296 13.1146C12.8254 13.1229 13.3658 13.1308 13.4162 13.1146V13.1129C13.4504 13.1617 13.4829 13.2088 13.5479 13.2008C13.6587 13.1779 13.7467 13.165 13.7496 12.9388C13.7496 12.9388 13.7383 12.5512 13.4842 12.5758C13.4254 12.5854 13.2562 12.6021 13.2562 12.6021C13.0608 12.5792 12.9192 12.5758 12.6996 12.5679C12.7208 12.5417 12.755 12.4392 12.7125 12.4004C12.7012 12.3908 12.6833 12.3858 12.6604 12.3875H12.6587H12.6571C12.6554 12.3875 12.6537 12.3875 12.6537 12.3858C12.6521 12.3858 12.6504 12.3842 12.6504 12.3825L12.6487 12.3808C12.6375 12.3646 12.6308 12.3254 12.6242 12.3158L12.6225 12.3142L12.6208 12.3125H12.6192C12.62 12.3146 12.62 12.3146 12.62 12.3146Z" fill="white"/>
<path id="Vector_35" d="M12.4364 12.9961C12.4364 12.9961 12.4364 12.9961 12.4381 12.9961C12.661 13.0073 12.871 12.9994 13.0939 13.009C13.1297 13.0398 13.1118 13.1082 13.0872 13.1215C13.0872 13.1215 13.0856 13.1232 13.0839 13.1232C13.0839 13.1232 13.0822 13.1232 13.0806 13.1232H13.0789C13.0056 13.1215 12.9635 13.1198 12.8918 13.1182C12.8918 13.1132 12.8901 13.1098 12.8901 13.1069C12.8722 13.0565 12.7485 13.0598 12.7176 13.0986C12.7176 13.1003 12.7176 13.1003 12.716 13.1019C12.716 13.1019 12.716 13.1036 12.7143 13.1036C12.7143 13.1053 12.7143 13.1069 12.7126 13.1086C12.7126 13.1103 12.7126 13.1119 12.7126 13.1136C12.7126 13.1153 12.711 13.1186 12.711 13.1203C12.6135 13.1315 12.5256 13.1169 12.4276 13.1136C12.3989 13.0778 12.4022 13.0123 12.4364 12.9961Z" fill="white"/>
</g>
</svg>
