<svg width="40" height="40" viewBox="0 0 40 40" fill="none" xmlns="http://www.w3.org/2000/svg">
<g id="icons8_menu 1">
<path id="Vector" d="M27 7.50017C27.2209 7.49704 27.4402 7.53785 27.6451 7.6202C27.85 7.70256 28.0366 7.82483 28.1939 7.9799C28.3511 8.13497 28.476 8.31976 28.5613 8.52352C28.6465 8.72729 28.6904 8.94596 28.6904 9.16683C28.6904 9.38771 28.6465 9.60638 28.5613 9.81014C28.476 10.0139 28.3511 10.1987 28.1939 10.3538C28.0366 10.5088 27.85 10.6311 27.6451 10.7135C27.4402 10.7958 27.2209 10.8366 27 10.8335H5.00003C4.77917 10.8366 4.5599 10.7958 4.35495 10.7135C4.15001 10.6311 3.96347 10.5088 3.80619 10.3538C3.64891 10.1987 3.52401 10.0139 3.43877 9.81014C3.35352 9.60638 3.30962 9.38771 3.30962 9.16683C3.30962 8.94596 3.35352 8.72729 3.43877 8.52352C3.52401 8.31976 3.64891 8.13497 3.80619 7.9799C3.96347 7.82483 4.15001 7.70256 4.35495 7.6202C4.5599 7.53785 4.77917 7.49704 5.00003 7.50017H27ZM35 18.3335C35.2209 18.3304 35.4402 18.3712 35.6451 18.4535C35.85 18.5359 36.0366 18.6582 36.1939 18.8132C36.3511 18.9683 36.476 19.1531 36.5613 19.3569C36.6465 19.5606 36.6904 19.7793 36.6904 20.0002C36.6904 20.221 36.6465 20.4397 36.5613 20.6435C36.476 20.8472 36.3511 21.032 36.1939 21.1871C36.0366 21.3422 35.85 21.4644 35.6451 21.5468C35.4402 21.6292 35.2209 21.67 35 21.6668H5.00003C4.77917 21.67 4.5599 21.6292 4.35495 21.5468C4.15001 21.4644 3.96347 21.3422 3.80619 21.1871C3.64891 21.032 3.52401 20.8472 3.43877 20.6435C3.35352 20.4397 3.30962 20.221 3.30962 20.0002C3.30962 19.7793 3.35352 19.5606 3.43877 19.3569C3.52401 19.1531 3.64891 18.9683 3.80619 18.8132C3.96347 18.6582 4.15001 18.5359 4.35495 18.4535C4.5599 18.3712 4.77917 18.3304 5.00003 18.3335H35ZM16 29.1668C16.2209 29.1637 16.4402 29.2045 16.6451 29.2869C16.85 29.3692 17.0366 29.4915 17.1939 29.6466C17.3511 29.8016 17.476 29.9864 17.5613 30.1902C17.6465 30.394 17.6904 30.6126 17.6904 30.8335C17.6904 31.0544 17.6465 31.2731 17.5613 31.4768C17.476 31.6806 17.3511 31.8654 17.1939 32.0204C17.0366 32.1755 16.85 32.2978 16.6451 32.3801C16.4402 32.4625 16.2209 32.5033 16 32.5002H5.00003C4.77917 32.5033 4.5599 32.4625 4.35495 32.3801C4.15001 32.2978 3.96347 32.1755 3.80619 32.0204C3.64891 31.8654 3.52401 31.6806 3.43877 31.4768C3.35352 31.2731 3.30962 31.0544 3.30962 30.8335C3.30962 30.6126 3.35352 30.394 3.43877 30.1902C3.52401 29.9864 3.64891 29.8016 3.80619 29.6466C3.96347 29.4915 4.15001 29.3692 4.35495 29.2869C4.5599 29.2045 4.77917 29.1637 5.00003 29.1668H16Z" fill="#DEE9EE"/>
</g>
</svg>
