<svg width="22" height="22" viewBox="0 0 22 22" fill="none" xmlns="http://www.w3.org/2000/svg">
<g id="icons8_moon_and_stars 1">
<path id="Vector" opacity="0.35" d="M14.8745 13.5899C11.6414 12.9538 9.04632 10.3587 8.41015 7.12561C8.21123 6.11819 8.2039 5.13919 8.35148 4.21335C8.50732 3.24169 7.48982 2.47902 6.62448 2.94927C3.34924 4.73035 1.28032 8.44744 1.96323 12.5679C2.59115 16.3555 5.64457 19.4089 9.43132 20.0369C13.5517 20.7198 17.2697 18.6509 19.0508 15.3747C19.5211 14.5094 18.7593 13.4928 17.7867 13.6477C16.8609 13.7962 15.8819 13.7889 14.8745 13.5899Z" fill="white"/>
<path id="Vector_2" fill-rule="evenodd" clip-rule="evenodd" d="M12.8947 1.47687C13.0038 1.23396 13.2449 1.07812 13.5107 1.07812C13.7766 1.07812 14.0177 1.23396 14.1267 1.47687L14.6337 2.60896C14.6428 2.63004 14.6566 2.64929 14.6731 2.66579C14.6896 2.68229 14.7088 2.69512 14.7299 2.70521L15.862 3.21213C16.1049 3.32121 16.2607 3.56229 16.2607 3.82812C16.2607 4.09396 16.1049 4.33504 15.862 4.44412L14.7299 4.95104C14.7088 4.96021 14.6896 4.97396 14.6731 4.99046C14.6566 5.00696 14.6437 5.02621 14.6337 5.04729L14.1258 6.17938C14.0167 6.42229 13.7757 6.57812 13.5098 6.57812C13.244 6.57812 13.0029 6.42229 12.8938 6.17938L12.3869 5.04729C12.3777 5.02621 12.364 5.00696 12.3475 4.99046C12.331 4.97396 12.3117 4.96112 12.2907 4.95104L11.1586 4.44412C10.9157 4.33504 10.7598 4.09396 10.7598 3.82812C10.7598 3.56229 10.9157 3.32121 11.1586 3.21213L12.2907 2.70521C12.3117 2.69604 12.331 2.68229 12.3475 2.66579C12.364 2.64929 12.3768 2.63004 12.3869 2.60896L12.8947 1.47687Z" fill="white"/>
<path id="Vector_3" fill-rule="evenodd" clip-rule="evenodd" d="M17.0057 7.59884C17.0781 7.43751 17.2394 7.33301 17.4163 7.33301C17.5933 7.33301 17.7546 7.43751 17.827 7.59884L18.1653 8.35418C18.1717 8.36793 18.1799 8.38076 18.1909 8.39176C18.2019 8.40276 18.2148 8.41192 18.2285 8.41742L18.9838 8.75567C19.1452 8.82809 19.2497 8.98943 19.2497 9.16634C19.2497 9.34326 19.1452 9.50459 18.9838 9.57701L18.2285 9.91526C18.2148 9.92168 18.2019 9.92993 18.1909 9.94093C18.1799 9.95193 18.1708 9.96476 18.1653 9.97851L17.827 10.7338C17.7546 10.8952 17.5933 10.9997 17.4163 10.9997C17.2394 10.9997 17.0781 10.8952 17.0057 10.7338L16.6674 9.97851C16.661 9.96476 16.6528 9.95193 16.6418 9.94093C16.6308 9.92993 16.6179 9.92076 16.6042 9.91526L15.8488 9.57701C15.6875 9.50459 15.583 9.34326 15.583 9.16634C15.583 8.98943 15.6875 8.82809 15.8488 8.75567L16.6042 8.41742C16.6179 8.41101 16.6308 8.40276 16.6418 8.39176C16.6528 8.38076 16.6619 8.36793 16.6674 8.35418L17.0057 7.59884Z" fill="white"/>
</g>
</svg>
