<svg xmlns="http://www.w3.org/2000/svg" width="20" height="20" viewBox="0 0 20 20" fill="none"><path d="M9.99984 1.66675C5.40484 1.66675 1.6665 5.40508 1.6665 10.0001C1.6665 14.5951 5.40484 18.3334 9.99984 18.3334C14.5948 18.3334 18.3332 14.5951 18.3332 10.0001C18.3332 5.40508 14.5948 1.66675 9.99984 1.66675ZM13.5669 8.56716L9.40025 12.7338C9.27817 12.8559 9.11817 12.9167 8.95817 12.9167C8.79817 12.9167 8.63817 12.8559 8.51609 12.7338L6.43275 10.6505C6.18859 10.4063 6.18859 10.0109 6.43275 9.76675C6.67692 9.52258 7.07234 9.52258 7.3165 9.76675L8.95775 11.408L12.6823 7.68341C12.9265 7.43925 13.3219 7.43925 13.5661 7.68341C13.8103 7.92758 13.8107 8.323 13.5669 8.56716Z" fill="#989CAA"></path></svg>