<svg width="20" height="20" viewBox="0 0 20 20" fill="none" xmlns="http://www.w3.org/2000/svg">
<g id="icons8_usa_2 1">
<path id="Vector" d="M12.5003 2.08366V2.04949C11.7112 1.80158 10.8716 1.66699 10.0003 1.66699C5.39783 1.66699 1.66699 5.39783 1.66699 10.0003C1.66699 10.2816 1.68199 10.5595 1.70908 10.8337H12.5003V2.08366Z" fill="#3F51B5"/>
<path id="Vector_2" d="M12.5 4.58301H16.325C15.9262 4.11801 15.4758 3.70092 14.9846 3.33301H12.5V4.58301Z" fill="#ECEFF1"/>
<path id="Vector_3" d="M18.2915 10.833H12.5002H1.70898C1.75148 11.2613 1.83523 11.6763 1.94023 12.083H18.0607C18.1652 11.6763 18.249 11.2613 18.2915 10.833Z" fill="#ECEFF1"/>
<path id="Vector_4" d="M15.9462 15.833H4.05371C4.52329 16.3118 5.05288 16.7284 5.62579 17.083H14.3741C14.947 16.7284 15.4766 16.3118 15.9462 15.833Z" fill="#ECEFF1"/>
<path id="Vector_5" d="M17.6351 13.333H2.36426C2.55551 13.7705 2.78301 14.1884 3.04342 14.583H16.9559C17.2163 14.1884 17.4434 13.7705 17.6351 13.333Z" fill="#ECEFF1"/>
<path id="Vector_6" d="M12.5 7.08301H17.7983C17.6354 6.64801 17.4396 6.23009 17.2096 5.83301H12.5V7.08301Z" fill="#ECEFF1"/>
<path id="Vector_7" d="M12.5 9.58301H18.3125C18.2913 9.15801 18.2487 8.73884 18.1662 8.33301H12.5V9.58301Z" fill="#ECEFF1"/>
<path id="Vector_8" d="M12.5 3.33301H14.985C14.2671 2.79551 13.4637 2.36801 12.5929 2.08301H12.5V3.33301Z" fill="#F44336"/>
<path id="Vector_9" d="M12.5 5.83301H17.2096C16.9525 5.38884 16.6571 4.97051 16.3254 4.58301H12.5V5.83301Z" fill="#F44336"/>
<path id="Vector_10" d="M12.5 8.33301H18.1658C18.0783 7.90217 17.9492 7.48717 17.7979 7.08301H12.5V8.33301Z" fill="#F44336"/>
<path id="Vector_11" d="M12.5 10.833H18.2912C18.3183 10.5588 18.3333 10.2809 18.3333 9.99967C18.3333 9.85884 18.3192 9.72176 18.3125 9.58301H12.5V10.833Z" fill="#F44336"/>
<path id="Vector_12" d="M18.0604 12.083H1.94043C2.05126 12.5134 2.19001 12.9326 2.36543 13.333H17.6358C17.8108 12.9326 17.9496 12.5134 18.0604 12.083Z" fill="#F44336"/>
<path id="Vector_13" d="M16.9564 14.583H3.04395C3.3402 15.0322 3.67853 15.4505 4.05395 15.833H15.9469C16.3219 15.4505 16.6602 15.0322 16.9564 14.583Z" fill="#F44336"/>
<path id="Vector_14" d="M5.62598 17.083C6.89848 17.8705 8.39348 18.333 10.0001 18.333C11.6068 18.333 13.1018 17.8705 14.3743 17.083H5.62598Z" fill="#F44336"/>
<path id="Vector_15" d="M4.27051 5.41699L4.46426 5.82866L4.89551 5.89366L4.58301 6.21449L4.65801 6.66699L4.27051 6.45366L3.88301 6.66699L3.95801 6.21449L3.64551 5.89366L4.07676 5.82866L4.27051 5.41699Z" fill="white"/>
<path id="Vector_16" d="M5.9375 5.41699L6.13125 5.82866L6.5625 5.89366L6.25 6.21449L6.325 6.66699L5.9375 6.45366L5.55 6.66699L5.625 6.21449L5.3125 5.89366L5.74375 5.82866L5.9375 5.41699Z" fill="white"/>
<path id="Vector_17" d="M2.6038 6.45339L2.9913 6.66672L2.9163 6.21422L3.2288 5.89339L2.79755 5.82839L2.79589 5.82422C2.65839 6.06089 2.53214 6.30464 2.41797 6.55547L2.6038 6.45339Z" fill="white"/>
<path id="Vector_18" d="M7.60449 5.41699L7.79824 5.82866L8.22949 5.89366L7.91699 6.21449L7.99199 6.66699L7.60449 6.45366L7.21699 6.66699L7.29199 6.21449L6.97949 5.89366L7.41074 5.82866L7.60449 5.41699Z" fill="white"/>
<path id="Vector_19" d="M9.27051 5.41699L9.46426 5.82866L9.89551 5.89366L9.58301 6.21449L9.65801 6.66699L9.27051 6.45366L8.88301 6.66699L8.95801 6.21449L8.64551 5.89366L9.07676 5.82866L9.27051 5.41699Z" fill="white"/>
<path id="Vector_20" d="M10.833 5.41699L11.0268 5.82866L11.458 5.89366L11.1455 6.21449L11.2205 6.66699L10.833 6.45366L10.4455 6.66699L10.5205 6.21449L10.208 5.89366L10.6393 5.82866L10.833 5.41699Z" fill="white"/>
<path id="Vector_21" d="M4.27051 8.75L4.46426 9.16167L4.89551 9.22667L4.58301 9.5475L4.65801 10L4.27051 9.78667L3.88301 10L3.95801 9.5475L3.64551 9.22667L4.07676 9.16167L4.27051 8.75Z" fill="white"/>
<path id="Vector_22" d="M5.9375 8.75L6.13125 9.16167L6.5625 9.22667L6.25 9.5475L6.325 10L5.9375 9.78667L5.55 10L5.625 9.5475L5.3125 9.22667L5.74375 9.16167L5.9375 8.75Z" fill="white"/>
<path id="Vector_23" d="M7.60449 8.75L7.79824 9.16167L8.22949 9.22667L7.91699 9.5475L7.99199 10L7.60449 9.78667L7.21699 10L7.29199 9.5475L6.97949 9.22667L7.41074 9.16167L7.60449 8.75Z" fill="white"/>
<path id="Vector_24" d="M2.60449 8.75L2.79824 9.16167L3.22949 9.22667L2.91699 9.5475L2.99199 10L2.60449 9.78667L2.21699 10L2.29199 9.5475L1.97949 9.22667L2.41074 9.16167L2.60449 8.75Z" fill="white"/>
<path id="Vector_25" d="M9.27051 8.75L9.46426 9.16167L9.89551 9.22667L9.58301 9.5475L9.65801 10L9.27051 9.78667L8.88301 10L8.95801 9.5475L8.64551 9.22667L9.07676 9.16167L9.27051 8.75Z" fill="white"/>
<path id="Vector_26" d="M10.833 8.75L11.0268 9.16167L11.458 9.22667L11.1455 9.5475L11.2205 10L10.833 9.78667L10.4455 10L10.5205 9.5475L10.208 9.22667L10.6393 9.16167L10.833 8.75Z" fill="white"/>
<path id="Vector_27" d="M4.6875 7.08301L4.88125 7.49467L5.3125 7.55967L5 7.88051L5.075 8.33301L4.6875 8.11967L4.3 8.33301L4.375 7.88051L4.0625 7.55967L4.49375 7.49467L4.6875 7.08301Z" fill="white"/>
<path id="Vector_28" d="M6.35449 7.08301L6.54824 7.49467L6.97949 7.55967L6.66699 7.88051L6.74199 8.33301L6.35449 8.11967L5.96699 8.33301L6.04199 7.88051L5.72949 7.55967L6.16074 7.49467L6.35449 7.08301Z" fill="white"/>
<path id="Vector_29" d="M3.02051 7.08301L3.21426 7.49467L3.64551 7.55967L3.33301 7.88051L3.40801 8.33301L3.02051 8.11967L2.63301 8.33301L2.70801 7.88051L2.39551 7.55967L2.82676 7.49467L3.02051 7.08301Z" fill="white"/>
<path id="Vector_30" d="M8.02051 7.08301L8.21426 7.49467L8.64551 7.55967L8.33301 7.88051L8.40801 8.33301L8.02051 8.11967L7.63301 8.33301L7.70801 7.88051L7.39551 7.55967L7.82676 7.49467L8.02051 7.08301Z" fill="white"/>
<path id="Vector_31" d="M9.6875 7.08301L9.88125 7.49467L10.3125 7.55967L10 7.88051L10.075 8.33301L9.6875 8.11967L9.3 8.33301L9.375 7.88051L9.0625 7.55967L9.49375 7.49467L9.6875 7.08301Z" fill="white"/>
<path id="Vector_32" d="M11.25 7.08301L11.4438 7.49467L11.875 7.55967L11.5625 7.88051L11.6375 8.33301L11.25 8.11967L10.8625 8.33301L10.9375 7.88051L10.625 7.55967L11.0562 7.49467L11.25 7.08301Z" fill="white"/>
<path id="Vector_33" d="M4.6875 3.75L4.88125 4.16167L5.3125 4.22667L5 4.5475L5.075 5L4.6875 4.78667L4.3 5L4.375 4.5475L4.0625 4.22667L4.49375 4.16167L4.6875 3.75Z" fill="white"/>
<path id="Vector_34" d="M6.35449 3.75L6.54824 4.16167L6.97949 4.22667L6.66699 4.5475L6.74199 5L6.35449 4.78667L5.96699 5L6.04199 4.5475L5.72949 4.22667L6.16074 4.16167L6.35449 3.75Z" fill="white"/>
<path id="Vector_35" d="M8.02051 3.75L8.21426 4.16167L8.64551 4.22667L8.33301 4.5475L8.40801 5L8.02051 4.78667L7.63301 5L7.70801 4.5475L7.39551 4.22667L7.82676 4.16167L8.02051 3.75Z" fill="white"/>
<path id="Vector_36" d="M9.6875 3.75L9.88125 4.16167L10.3125 4.22667L10 4.5475L10.075 5L9.6875 4.78667L9.3 5L9.375 4.5475L9.0625 4.22667L9.49375 4.16167L9.6875 3.75Z" fill="white"/>
<path id="Vector_37" d="M11.25 3.75L11.4438 4.16167L11.875 4.22667L11.5625 4.5475L11.6375 5L11.25 4.78667L10.8625 5L10.9375 4.5475L10.625 4.22667L11.0562 4.16167L11.25 3.75Z" fill="white"/>
<path id="Vector_38" d="M6.32499 3.33331L6.24999 2.88081L6.56249 2.55997L6.3329 2.52539C6.08749 2.64581 5.84957 2.77789 5.61832 2.92122L5.54999 3.33331L5.93749 3.11997L6.32499 3.33331Z" fill="white"/>
<path id="Vector_39" d="M7.60449 2.08301L7.79824 2.49467L8.22949 2.55967L7.91699 2.88051L7.99199 3.33301L7.60449 3.11967L7.21699 3.33301L7.29199 2.88051L6.97949 2.55967L7.41074 2.49467L7.60449 2.08301Z" fill="white"/>
<path id="Vector_40" d="M9.27051 2.08301L9.46426 2.49467L9.89551 2.55967L9.58301 2.88051L9.65801 3.33301L9.27051 3.11967L8.88301 3.33301L8.95801 2.88051L8.64551 2.55967L9.07676 2.49467L9.27051 2.08301Z" fill="white"/>
<path id="Vector_41" d="M10.833 2.08301L11.0268 2.49467L11.458 2.56009L11.1455 2.88092L11.2205 3.33301L10.833 3.11967L10.4455 3.33301L10.5205 2.88051L10.208 2.55967L10.6393 2.49467L10.833 2.08301Z" fill="white"/>
</g>
</svg>
